<svg width="54" height="54" viewBox="0 0 54 54" fill="none" xmlns="http://www.w3.org/2000/svg">
<path d="M21.9474 2.88675C25.0414 1.10042 28.8534 1.10042 31.9474 2.88675L45.2845 10.5869C48.3785 12.3733 50.2845 15.6745 50.2845 19.2472V34.6476C50.2845 38.2202 48.3785 41.5215 45.2845 43.3078L31.9474 51.008C28.8534 52.7943 25.0414 52.7943 21.9474 51.008L8.61026 43.3078C5.51625 41.5215 3.61026 38.2202 3.61026 34.6475V19.2472C3.61026 15.6745 5.51625 12.3733 8.61026 10.5869L21.9474 2.88675Z" fill="#1260FE"/>
<path d="M27.1975 9.26172C27.1973 9.26172 27.1973 9.26172 27.1973 9.26172C25.9287 9.26172 24.6912 9.39427 23.4971 9.64475L27.1975 17.8475V9.26172Z" fill="white"/>
<path d="M18.2304 11.6641C18.2301 11.6641 18.2301 11.6641 18.2301 11.6641C17.1315 12.2984 16.126 13.0317 15.2173 13.8458L22.5233 19.0995L18.2304 11.6641Z" fill="white"/>
<path d="M11.6661 18.2285C11.6657 18.2287 11.6657 18.2287 11.6657 18.2287C11.0315 19.3274 10.5274 20.4652 10.1476 21.6245L19.1016 22.5214L11.6661 18.2285Z" fill="white"/>
<path d="M9.26337 27.1953C9.26318 27.1956 9.26318 27.1956 9.26318 27.1956C9.26318 28.4644 9.39555 29.7016 9.64621 30.8958L17.8491 27.1954L9.26337 27.1953Z" fill="white"/>
<path d="M11.6661 36.1639C11.6661 36.1643 11.6661 36.1643 11.6661 36.1643C12.3006 37.2632 13.0339 38.2685 13.8479 39.1772L19.1017 31.8711L11.6661 36.1639Z" fill="white"/>
<path d="M18.2306 42.7266L18.2308 42.7267C19.3295 43.3612 20.4674 43.8652 21.6267 44.2452L22.5235 35.291L18.2306 42.7266Z" fill="white"/>
<path d="M27.1978 45.1307C27.1981 45.1307 27.1981 45.1307 27.1981 45.1307C28.4668 45.131 29.704 44.9984 30.8982 44.7478L27.1978 36.5449V45.1307Z" fill="white"/>
<path d="M34.0547 36.7089C30.9782 36.7089 28.5979 35.9117 26.9137 34.3173C25.2519 32.7229 24.421 30.5671 24.421 27.8499C24.421 24.2345 25.6561 21.304 28.1263 19.0584C30.6189 16.7903 33.7403 15.6562 37.4905 15.6562C39.5789 15.6562 41.1621 16.1278 42.24 17.071C43.3179 17.9917 43.8568 19.2155 43.8568 20.7426C43.8568 22.831 42.8351 24.5713 40.7915 25.9636C38.7705 27.3334 35.6379 28.0296 31.3937 28.052C31.461 29.4892 31.7866 30.6233 32.3705 31.4541C32.9544 32.2626 33.6842 32.6668 34.56 32.6668C35.4358 32.6668 36.188 32.3748 36.8168 31.791C37.468 31.2071 37.7937 30.2527 37.7937 28.9278C41.0722 28.9278 42.7115 29.7026 42.7115 31.252C42.7115 32.577 41.9031 33.8233 40.2863 34.991C38.6694 36.1363 36.5922 36.7089 34.0547 36.7089ZM36.9179 19.5973C35.7726 19.5973 34.7172 20.1699 33.7515 21.3152C32.8084 22.4605 32.1235 23.8078 31.6968 25.3573C33.9424 25.1777 35.6266 24.6724 36.7494 23.8415C37.8947 22.9882 38.4673 22.0899 38.4673 21.1468C38.4673 20.6977 38.3214 20.3271 38.0294 20.0352C37.76 19.7433 37.3894 19.5973 36.9179 19.5973Z" fill="white"/>
</svg>
