<svg width="51" height="51" viewBox="0 0 51 51" fill="none" xmlns="http://www.w3.org/2000/svg">
<path d="M25.4526 50.9639C39.5097 50.9639 50.9053 39.7736 50.9053 25.9697C50.9053 12.1659 39.5097 0.975586 25.4526 0.975586C11.3956 0.975586 0 12.1659 0 25.9697C0 39.7736 11.3956 50.9639 25.4526 50.9639Z" fill="#5B3AEE"/>
<path fill-rule="evenodd" clip-rule="evenodd" d="M9.58818 35.1095L8.72608 35.403L8.82009 34.5117C9.11123 31.7535 9.40238 28.9955 9.69352 26.2373L7.38965 37.6122C7.38965 37.6122 12.158 33.8815 19.6332 34.6829C16.3514 33.8735 12.8549 33.9972 9.58818 35.1095Z" fill="white"/>
<path fill-rule="evenodd" clip-rule="evenodd" d="M23.9499 35.7184C19.4991 33.3642 14.221 32.9284 9.39746 34.5707C9.79198 30.833 10.1866 27.0953 10.581 23.3575C13.6165 22.3263 16.8067 21.8717 19.9842 21.9997C20.8048 23.2967 21.3819 24.7995 21.8031 26.5216C22.2244 28.244 22.5667 29.9819 22.9452 31.7132C23.2408 33.0661 23.5611 34.4001 23.9499 35.7184ZM30.9643 21.9918C34.0702 21.8925 37.1844 22.3496 40.1511 23.3574C40.5456 27.0951 40.94 30.833 41.3346 34.5706C36.34 32.8701 30.8578 33.3975 26.3115 35.976C26.4523 35.1039 26.5978 34.2324 26.7704 33.3608C27.2182 31.1002 27.8054 28.8844 28.5472 26.6989C29.1118 25.0362 29.912 23.4174 30.9643 21.9918Z" fill="white"/>
<path fill-rule="evenodd" clip-rule="evenodd" d="M41.1445 35.1095L42.0066 35.403L41.9126 34.5117C41.6215 31.7535 41.3304 28.9955 41.0393 26.2373L43.3431 37.6122C43.3431 37.6122 38.5747 33.8815 31.0996 34.6829C34.3814 33.8735 37.8779 33.9972 41.1445 35.1095Z" fill="white"/>
<path fill-rule="evenodd" clip-rule="evenodd" d="M25.3664 37.6122C23.8455 33.6296 23.3632 29.9329 22.3856 25.9362C21.5346 22.4586 19.89 18.7944 14.9141 16.6567C14.9141 16.6567 21.8822 15.9075 25.3662 24.4078C25.3662 24.4078 27.5437 18.7952 32.7698 18.7952C32.7698 18.7952 29.7213 20.9335 27.9792 26.0654C26.2374 31.1974 25.802 35.0463 25.3664 37.6122Z" fill="white"/>
<path fill-rule="evenodd" clip-rule="evenodd" d="M25.4155 13.876C27.2156 13.876 28.6748 15.3089 28.6748 17.0766C28.6748 18.8442 27.2156 20.2772 25.4155 20.2772C23.6155 20.2772 22.1562 18.8442 22.1562 17.0766C22.1562 15.3089 23.6155 13.876 25.4155 13.876Z" fill="white"/>
</svg>
