<svg width="1170" height="88" viewBox="0 0 1170 88" fill="none" xmlns="http://www.w3.org/2000/svg">
<path d="M4 82.0657H280.087C286.215 82.0657 292.196 80.1891 297.226 76.6883L391.774 10.8775C396.804 7.37663 402.785 5.5 408.913 5.5L1169 5.5" stroke="#5B3AEE"/>
<path d="M5.00572 87.9999C4.86381 88.0008 4.72487 87.9553 4.60662 87.869C4.48836 87.7828 4.39614 87.6598 4.34173 87.5157C4.28731 87.3716 4.27315 87.2129 4.30107 87.06C4.32898 86.907 4.3977 86.7666 4.49846 86.6568L8.28509 82.5015L4.49846 78.3463C4.38141 78.1961 4.32025 78.0028 4.32719 77.8051C4.33414 77.6074 4.40868 77.4199 4.53592 77.28C4.66316 77.1401 4.83373 77.0581 5.01354 77.0505C5.19336 77.0429 5.36917 77.1101 5.50584 77.2388L9.7926 81.9517C9.92567 82.0989 10.0004 82.298 10.0004 82.5055C10.0004 82.713 9.92567 82.9121 9.7926 83.0592L5.50584 87.7721C5.37277 87.9173 5.19315 87.9991 5.00572 87.9999Z" fill="#5B3AEE"/>
<path d="M0.718614 88C0.576705 88.0009 0.437765 87.9553 0.319508 87.8691C0.201251 87.7828 0.109035 87.6598 0.0546167 87.5157C0.000198702 87.3716 -0.0139558 87.213 0.0139579 87.06C0.0418715 86.907 0.110589 86.7667 0.211348 86.6568L3.99798 82.5016L0.211348 78.3464C0.0768129 78.1985 0.00123175 77.9979 0.00123175 77.7887C0.00123175 77.5795 0.0768129 77.3789 0.211348 77.231C0.345883 77.0831 0.528352 77 0.718614 77C0.908875 77 1.09134 77.0831 1.22588 77.231L5.51263 81.9439C5.6457 82.0911 5.72039 82.2902 5.72039 82.4977C5.72039 82.7052 5.6457 82.9043 5.51263 83.0514L1.22588 87.7643C1.15971 87.8386 1.0808 87.8976 0.993727 87.9381C0.906652 87.9785 0.813142 87.9996 0.718614 88Z" fill="#5B3AEE"/>
<path d="M1165.01 10.9999C1164.86 11.0008 1164.72 10.9553 1164.61 10.869C1164.49 10.7828 1164.4 10.6598 1164.34 10.5157C1164.29 10.3716 1164.27 10.2129 1164.3 10.06C1164.33 9.90699 1164.4 9.76662 1164.5 9.65675L1168.29 5.50154L1164.5 1.34633C1164.38 1.19607 1164.32 1.00278 1164.33 0.805093C1164.33 0.607406 1164.41 0.41988 1164.54 0.27999C1164.66 0.140099 1164.83 0.0581484 1165.01 0.0505126C1165.19 0.0428767 1165.37 0.110119 1165.51 0.238802L1169.79 4.9517C1169.93 5.09887 1170 5.29796 1170 5.50547C1170 5.71298 1169.93 5.91207 1169.79 6.05924L1165.51 10.7721C1165.37 10.9173 1165.19 10.9991 1165.01 10.9999Z" fill="#5B3AEE"/>
<path d="M1160.72 11C1160.58 11.0009 1160.44 10.9553 1160.32 10.8691C1160.2 10.7828 1160.11 10.6598 1160.05 10.5157C1160 10.3716 1159.99 10.213 1160.01 10.06C1160.04 9.90704 1160.11 9.76668 1160.21 9.65681L1164 5.5016L1160.21 1.34639C1160.08 1.19848 1160 0.997873 1160 0.788698C1160 0.579522 1160.08 0.378914 1160.21 0.231004C1160.35 0.0830948 1160.53 1.55848e-09 1160.72 0C1160.91 -1.55848e-09 1161.09 0.0830948 1161.23 0.231004L1165.51 4.94391C1165.65 5.09108 1165.72 5.29016 1165.72 5.49767C1165.72 5.70519 1165.65 5.90427 1165.51 6.05144L1161.23 10.7643C1161.16 10.8386 1161.08 10.8976 1160.99 10.9381C1160.91 10.9785 1160.81 10.9996 1160.72 11Z" fill="#5B3AEE"/>
</svg>
